<svg preserveAspectRatio="none" overflow="visible" style="display: block;" width="260.988" height="226.248" viewBox="0 0 260.988 226.248" fill="none" xmlns="http://www.w3.org/2000/svg">
<g id="Group 1533214011">
<path id="Vector 80" d="M182.956 225.611C143.95 218.577 97.5127 222.027 74.8516 225.611C50.7787 225.611 41.7888 205.179 40.303 194.963L2.41049 58.4394C-7.84272 27.234 17.0845 13.1169 30.8297 9.95909C98.1442 -8.07778 192.615 2.44373 231.436 9.95909C260.412 15.5686 262.456 37.4496 260.412 48.9658L220.848 202.764C217.728 225.945 194.287 227.654 182.956 225.611Z" fill="url(#paint0_radial_0_4)"/>
<g id="Vector 81" filter="url(#filter0_f_0_4)">
<path d="M179.556 218.403C143.078 211.82 99.6507 215.049 78.4585 218.403C55.946 218.403 47.5388 199.281 46.1493 189.719L10.713 61.9432C1.12436 32.7373 24.4358 19.5248 37.2901 16.5693C100.241 -0.311879 188.588 9.53547 224.893 16.5693C251.991 21.8194 253.902 42.2983 251.991 53.0767L214.992 197.02C212.074 218.716 190.152 220.316 179.556 218.403Z" fill="url(#paint1_radial_0_4)"/>
</g>
<g id="Vector 83" filter="url(#filter1_f_0_4)">
<path d="M73.1801 218.924C92.4503 208.832 143.056 194.703 191.315 218.924C170.369 214.719 117.418 208.832 73.1801 218.924Z" fill="url(#paint2_linear_0_4)"/>
</g>
</g>
<defs>
<filter id="filter0_f_0_4" x="3.75873" y="2.54832" width="253.471" height="221.151" filterUnits="userSpaceOnUse" color-interpolation-filters="sRGB">
<feFlood flood-opacity="0" result="BackgroundImageFix"/>
<feBlend mode="normal" in="SourceGraphic" in2="BackgroundImageFix" result="shape"/>
<feGaussianBlur stdDeviation="2.35" result="effect1_foregroundBlur_0_4"/>
</filter>
<filter id="filter1_f_0_4" x="71.1801" y="203.551" width="122.135" height="17.3737" filterUnits="userSpaceOnUse" color-interpolation-filters="sRGB">
<feFlood flood-opacity="0" result="BackgroundImageFix"/>
<feBlend mode="normal" in="SourceGraphic" in2="BackgroundImageFix" result="shape"/>
<feGaussianBlur stdDeviation="1" result="effect1_foregroundBlur_0_4"/>
</filter>
<radialGradient id="paint0_radial_0_4" cx="0" cy="0" r="1" gradientUnits="userSpaceOnUse" gradientTransform="translate(130.494 226.726) rotate(-91.1492) scale(262.037 254.376)">
<stop stop-color="#5CA7FD"/>
<stop offset="1"/>
</radialGradient>
<radialGradient id="paint1_radial_0_4" cx="0" cy="0" r="1" gradientUnits="userSpaceOnUse" gradientTransform="translate(130.494 219.447) rotate(-90) scale(202.8 196.715)">
<stop stop-color="#9AC9FF" stop-opacity="0.6"/>
<stop offset="1"/>
</radialGradient>
<linearGradient id="paint2_linear_0_4" x1="132.247" y1="205.551" x2="132.247" y2="218.924" gradientUnits="userSpaceOnUse">
<stop stop-color="white"/>
<stop offset="1" stop-color="#5CB5FD"/>
</linearGradient>
</defs>
</svg>
