<svg preserveAspectRatio="none" overflow="visible" style="display: block;" width="16" height="16" viewBox="0 0 16 16" fill="none" xmlns="http://www.w3.org/2000/svg">
<g id="Frame 2147238928">
<path id="Vector" d="M4.99453 5.50176C4.90209 5.50179 4.81152 5.52776 4.73311 5.5767C4.6547 5.62564 4.59159 5.69561 4.55097 5.77863C4.51034 5.86166 4.49382 5.95442 4.50329 6.04636C4.51276 6.13831 4.54783 6.22576 4.60453 6.29876L7.60453 10.2988C7.80453 10.5648 8.20153 10.5648 8.40153 10.2988L11.4015 6.29876C11.4567 6.22399 11.49 6.13531 11.4976 6.04268C11.5052 5.95004 11.4869 5.85712 11.4446 5.77434C11.4023 5.69156 11.3378 5.62221 11.2583 5.57406C11.1788 5.52591 11.0875 5.50087 10.9945 5.50176H4.99453Z" fill="white" fill-opacity="0.2"/>
</g>
</svg>
